<?xml version="1.0" standalone="no"?>
<!DOCTYPE svg PUBLIC "-//W3C//DTD SVG 20010904//EN"
 "http://www.w3.org/TR/2001/REC-SVG-20010904/DTD/svg10.dtd">
<svg version="1.0" xmlns="http://www.w3.org/2000/svg"
 width="128.000000pt" height="128.000000pt" viewBox="0 0 128.000000 128.000000"
 preserveAspectRatio="xMidYMid meet">
<metadata>
Created by potrace 1.11, written by Peter Selinger 2001-2013
</metadata>
<g transform="translate(0.000000,128.000000) scale(0.100000,-0.100000)"
fill="#000000" stroke="none">
<path d="M418 1124 c-37 -16 -38 -16 -33 -67 2 -31 16 -75 34 -111 38 -72 39
-99 5 -133 -49 -49 -63 -87 -61 -160 2 -57 -3 -78 -27 -128 -16 -33 -41 -78
-55 -100 -71 -106 -75 -175 -14 -231 33 -30 36 -31 64 -17 16 8 48 40 71 70
49 67 74 93 82 85 3 -3 6 -1 6 4 0 5 38 9 85 9 53 0 88 4 93 11 4 7 25 22 47
35 35 21 54 24 160 25 157 1 196 9 229 43 36 37 42 105 12 124 -26 16 -90 34
-131 36 -71 3 -125 45 -125 95 0 30 -33 68 -74 86 -23 10 -55 31 -72 46 -26
24 -101 147 -133 219 -12 27 -60 61 -96 68 -18 4 -46 0 -67 -9z"/>
</g>
</svg>
