<svg xmlns="http://www.w3.org/2000/svg" x="0px" y="0px"
width="24" height="24"
viewBox="0 0 172 172"
style=" fill:#ffffff;"><g transform=""><g fill="none" fill-rule="nonzero" stroke="none" stroke-width="1" stroke-linecap="butt" stroke-linejoin="miter" stroke-miterlimit="10" stroke-dasharray="" stroke-dashoffset="0" font-family="none" font-weight="none" font-size="none" text-anchor="none" style="mix-blend-mode: normal"><path d="M0,172v-172h172v172z" fill="none" stroke="none"></path><g id="original-icon" fill="#ffffff" stroke="none" opacity="0" visibility="hidden"><path d="M69.875,10.75c-2.967,0 -5.375,2.408 -5.375,5.375c0,2.967 2.408,5.375 5.375,5.375h5.375v11.02295c-30.08925,2.7305 -53.75,28.0748 -53.75,58.85205c0,32.594 26.52025,59.125 59.125,59.125c32.60475,0 59.125,-26.531 59.125,-59.125c0,-14.37275 -5.15345,-27.55846 -13.71045,-37.81396l12.13575,-12.13574c2.09625,-2.09625 2.09625,-5.50434 0,-7.60059c-2.09625,-2.09625 -5.50434,-2.09625 -7.60059,0l-12.13574,12.15674c-8.9655,-7.482 -20.17321,-12.3405 -32.43896,-13.4585v-11.02295h5.375c2.967,0 5.375,-2.408 5.375,-5.375c0,-2.967 -2.408,-5.375 -5.375,-5.375h-5.375h-10.75zM80.625,43c26.67075,0 48.375,21.70425 48.375,48.375c0,26.67075 -21.70425,48.375 -48.375,48.375c-26.67075,0 -48.375,-21.70425 -48.375,-48.375c0,-26.67075 21.70425,-48.375 48.375,-48.375zM80.625,53.75c-2.967,0 -5.375,2.408 -5.375,5.375v32.25c0,1.42975 0.56421,2.80054 1.57471,3.80029l22.84375,22.75976c1.0535,1.04275 2.43504,1.5747 3.80029,1.57471c1.376,0 2.74679,-0.53196 3.80029,-1.57471c7.0735,-7.095 10.98096,-16.53031 10.98096,-26.56006c0,-20.7475 -16.8775,-37.625 -37.625,-37.625zM86,65.0459c12.255,2.494 21.5,13.35385 21.5,26.3291c0,5.332 -1.53893,10.43825 -4.40918,14.78125l-17.09082,-17.00684z"></path></g><g id="subtracted-icon" fill="#ffffff" stroke="none"><path d="M91.375,10.75c2.967,0 5.375,2.408 5.375,5.375c0,2.967 -2.408,5.375 -5.375,5.375h-5.375v11.02295c12.26575,1.118 23.47346,5.9765 32.43896,13.4585l12.13574,-12.15674c2.09625,-2.09625 5.50434,-2.09625 7.60059,0c2.09625,2.09625 2.09625,5.50434 0,7.60059l-12.13575,12.13574c3.00208,3.59797 5.58524,7.55661 7.67392,11.80064c-3.27934,-0.56644 -6.65016,-0.86167 -10.08846,-0.86167c-0.92309,0 -1.84133,0.02128 -2.75423,0.06337c-8.68365,-12.99062 -23.48388,-21.56337 -40.24577,-21.56337c-26.67075,0 -48.375,21.70425 -48.375,48.375c0,21.6324 14.27853,39.99749 33.90449,46.16418c1.02411,4.22754 2.50403,8.27929 4.38455,12.10005c-27.81619,-4.80109 -49.03904,-29.1067 -49.03904,-58.26423c0,-30.77725 23.66075,-56.12155 53.75,-58.85205v-11.02295h-5.375c-2.967,0 -5.375,-2.408 -5.375,-5.375c0,-2.967 2.408,-5.375 5.375,-5.375zM75.25,59.125c0,-2.967 2.408,-5.375 5.375,-5.375c11.17094,0 21.21996,4.89278 28.11675,12.64802c-3.88577,1.01178 -7.61748,2.41004 -11.1514,4.15108c-3.30399,-2.69539 -7.25919,-4.62177 -11.59035,-5.5032v13.00847c-4.07793,3.37313 -7.69758,7.28181 -10.75,11.61707z"></path></g><path d="" fill="none" stroke="none"></path><path d="" fill="none" stroke="none"></path><g fill="#ffffff" stroke="none"><g id="Layer_1"><g><path d="M123.625,75.25c-26.67075,0 -48.375,21.70425 -48.375,48.375c0,26.67075 21.70425,48.375 48.375,48.375c26.67075,0 48.375,-21.70425 48.375,-48.375c0,-26.67075 -21.70425,-48.375 -48.375,-48.375zM123.625,161.25c-20.7475,0 -37.625,-16.8775 -37.625,-37.625c0,-20.7475 16.8775,-37.625 37.625,-37.625c20.7475,0 37.625,16.8775 37.625,37.625c0,20.7475 -16.8775,37.625 -37.625,37.625z"></path><rect x="9" y="11" transform="scale(10.75,10.75)" width="5" height="1"></rect></g></g><g id="Layer_1" opacity="0"><g><path d="M123.625,64.5c-32.594,0 -59.125,26.531 -59.125,59.125c0,32.594 26.531,59.125 59.125,59.125c32.594,0 59.125,-26.531 59.125,-59.125c0,-32.594 -26.531,-59.125 -59.125,-59.125z"></path></g></g></g><path d="M75.25,172v-96.75h96.75v96.75z" id="overlay-drag" fill="#ffffff" stroke="none" opacity="0"></path></g></g></svg>